<svg xmlns="http://www.w3.org/2000/svg" width="50" height="50" viewBox="0 0 50 50">
  <metadata><?xpacket begin="﻿" id="W5M0MpCehiHzreSzNTczkc9d"?>
<x:xmpmeta xmlns:x="adobe:ns:meta/" x:xmptk="Adobe XMP Core 5.6-c138 79.159824, 2016/09/14-01:09:01        ">
   <rdf:RDF xmlns:rdf="http://www.w3.org/1999/02/22-rdf-syntax-ns#">
      <rdf:Description rdf:about=""/>
   </rdf:RDF>
</x:xmpmeta>
                      
<?xpacket end="w"?></metadata>
<defs>
    <style>
      .cls-1 {
        fill: #fff;
        fill-rule: evenodd;
      }
    </style>
  </defs>
  <path class="cls-1" d="M16.22,22.016a0.22,0.22,0,0,0-.221.219v6.526a0.22,0.22,0,0,0,.221.219h4.827L28.334,36V15l-7.287,7.017H16.22ZM32.336,25.5a3.794,3.794,0,0,0-2.312-3.486v6.972A3.794,3.794,0,0,0,32.336,25.5Zm-2.312-7.28v1.333a6.121,6.121,0,0,1,0,11.893v1.333A7.421,7.421,0,0,0,30.023,18.219Z"/>
</svg>
